<svg id="visual" viewBox="0 0 900 600" width="900" height="600" xmlns="http://www.w3.org/2000/svg" xmlns:xlink="http://www.w3.org/1999/xlink" version="1.1"><rect x="0" y="0" width="900" height="600" fill="#140021"></rect><defs><linearGradient id="grad1_0" x1="33.3%" y1="0%" x2="100%" y2="100%"><stop offset="20%" stop-color="#9900ff" stop-opacity="1"></stop><stop offset="80%" stop-color="#9900ff" stop-opacity="1"></stop></linearGradient></defs><defs><linearGradient id="grad1_1" x1="33.3%" y1="0%" x2="100%" y2="100%"><stop offset="20%" stop-color="#9900ff" stop-opacity="1"></stop><stop offset="80%" stop-color="#8110dd" stop-opacity="1"></stop></linearGradient></defs><defs><linearGradient id="grad1_2" x1="33.3%" y1="0%" x2="100%" y2="100%"><stop offset="20%" stop-color="#6a15bb" stop-opacity="1"></stop><stop offset="80%" stop-color="#8110dd" stop-opacity="1"></stop></linearGradient></defs><defs><linearGradient id="grad1_3" x1="33.3%" y1="0%" x2="100%" y2="100%"><stop offset="20%" stop-color="#6a15bb" stop-opacity="1"></stop><stop offset="80%" stop-color="#55169a" stop-opacity="1"></stop></linearGradient></defs><defs><linearGradient id="grad1_4" x1="33.3%" y1="0%" x2="100%" y2="100%"><stop offset="20%" stop-color="#421479" stop-opacity="1"></stop><stop offset="80%" stop-color="#55169a" stop-opacity="1"></stop></linearGradient></defs><defs><linearGradient id="grad1_5" x1="33.3%" y1="0%" x2="100%" y2="100%"><stop offset="20%" stop-color="#421479" stop-opacity="1"></stop><stop offset="80%" stop-color="#30115a" stop-opacity="1"></stop></linearGradient></defs><defs><linearGradient id="grad1_6" x1="33.3%" y1="0%" x2="100%" y2="100%"><stop offset="20%" stop-color="#200d3c" stop-opacity="1"></stop><stop offset="80%" stop-color="#30115a" stop-opacity="1"></stop></linearGradient></defs><defs><linearGradient id="grad1_7" x1="33.3%" y1="0%" x2="100%" y2="100%"><stop offset="20%" stop-color="#200d3c" stop-opacity="1"></stop><stop offset="80%" stop-color="#140021" stop-opacity="1"></stop></linearGradient></defs><defs><linearGradient id="grad2_0" x1="0%" y1="0%" x2="66.7%" y2="100%"><stop offset="20%" stop-color="#9900ff" stop-opacity="1"></stop><stop offset="80%" stop-color="#9900ff" stop-opacity="1"></stop></linearGradient></defs><defs><linearGradient id="grad2_1" x1="0%" y1="0%" x2="66.7%" y2="100%"><stop offset="20%" stop-color="#8110dd" stop-opacity="1"></stop><stop offset="80%" stop-color="#9900ff" stop-opacity="1"></stop></linearGradient></defs><defs><linearGradient id="grad2_2" x1="0%" y1="0%" x2="66.7%" y2="100%"><stop offset="20%" stop-color="#8110dd" stop-opacity="1"></stop><stop offset="80%" stop-color="#6a15bb" stop-opacity="1"></stop></linearGradient></defs><defs><linearGradient id="grad2_3" x1="0%" y1="0%" x2="66.7%" y2="100%"><stop offset="20%" stop-color="#55169a" stop-opacity="1"></stop><stop offset="80%" stop-color="#6a15bb" stop-opacity="1"></stop></linearGradient></defs><defs><linearGradient id="grad2_4" x1="0%" y1="0%" x2="66.7%" y2="100%"><stop offset="20%" stop-color="#55169a" stop-opacity="1"></stop><stop offset="80%" stop-color="#421479" stop-opacity="1"></stop></linearGradient></defs><defs><linearGradient id="grad2_5" x1="0%" y1="0%" x2="66.7%" y2="100%"><stop offset="20%" stop-color="#30115a" stop-opacity="1"></stop><stop offset="80%" stop-color="#421479" stop-opacity="1"></stop></linearGradient></defs><defs><linearGradient id="grad2_6" x1="0%" y1="0%" x2="66.7%" y2="100%"><stop offset="20%" stop-color="#30115a" stop-opacity="1"></stop><stop offset="80%" stop-color="#200d3c" stop-opacity="1"></stop></linearGradient></defs><defs><linearGradient id="grad2_7" x1="0%" y1="0%" x2="66.7%" y2="100%"><stop offset="20%" stop-color="#140021" stop-opacity="1"></stop><stop offset="80%" stop-color="#200d3c" stop-opacity="1"></stop></linearGradient></defs><g transform="translate(900, 0)"><path d="M0 297.5C-37.1 264.3 -74.1 231.1 -121.5 210.4C-168.9 189.8 -226.6 181.7 -257.6 148.7C-288.7 115.7 -293.1 57.9 -297.5 0L0 0Z" fill="#1a082e"></path><path d="M0 260.3C-32.4 231.2 -64.9 202.2 -106.3 184.1C-147.8 166.1 -198.2 159 -225.4 130.1C-252.6 101.3 -256.4 50.6 -260.3 0L0 0Z" fill="#280f4b"></path><path d="M0 223.1C-27.8 198.2 -55.6 173.3 -91.1 157.8C-126.7 142.4 -169.9 136.3 -193.2 111.5C-216.5 86.8 -219.8 43.4 -223.1 0L0 0Z" fill="#39136a"></path><path d="M0 185.9C-23.2 165.2 -46.3 144.4 -75.9 131.5C-105.5 118.6 -141.6 113.6 -161 93C-180.4 72.3 -183.2 36.2 -185.9 0L0 0Z" fill="#4b1589"></path><path d="M0 148.7C-18.5 132.1 -37.1 115.5 -60.7 105.2C-84.4 94.9 -113.3 90.9 -128.8 74.4C-144.3 57.9 -146.5 28.9 -148.7 0L0 0Z" fill="#6016aa"></path><path d="M0 111.5C-13.9 99.1 -27.8 86.7 -45.6 78.9C-63.3 71.2 -85 68.1 -96.6 55.8C-108.2 43.4 -109.9 21.7 -111.5 0L0 0Z" fill="#7513cc"></path><path d="M0 74.4C-9.3 66.1 -18.5 57.8 -30.4 52.6C-42.2 47.5 -56.6 45.4 -64.4 37.2C-72.2 28.9 -73.3 14.5 -74.4 0L0 0Z" fill="#8d0aee"></path><path d="M0 37.2C-4.6 33 -9.3 28.9 -15.2 26.3C-21.1 23.7 -28.3 22.7 -32.2 18.6C-36.1 14.5 -36.6 7.2 -37.2 0L0 0Z" fill="#9900ff"></path></g><g transform="translate(0, 600)"><path d="M0 -297.5C29.9 -251.8 59.7 -206.1 108 -187.1C156.3 -168 223 -175.5 257.6 -148.7C292.3 -122 294.9 -61 297.5 0L0 0Z" fill="#1a082e"></path><path d="M0 -260.3C26.1 -220.3 52.3 -180.4 94.5 -163.7C136.7 -147 195.1 -153.5 225.4 -130.1C255.7 -106.7 258 -53.4 260.3 0L0 0Z" fill="#280f4b"></path><path d="M0 -223.1C22.4 -188.9 44.8 -154.6 81 -140.3C117.2 -126 167.2 -131.6 193.2 -111.5C219.2 -91.5 221.1 -45.7 223.1 0L0 0Z" fill="#39136a"></path><path d="M0 -185.9C18.7 -157.4 37.3 -128.8 67.5 -116.9C97.7 -105 139.4 -109.7 161 -93C182.7 -76.2 184.3 -38.1 185.9 0L0 0Z" fill="#4b1589"></path><path d="M0 -148.7C14.9 -125.9 29.9 -103.1 54 -93.5C78.1 -84 111.5 -87.7 128.8 -74.4C146.1 -61 147.4 -30.5 148.7 0L0 0Z" fill="#6016aa"></path><path d="M0 -111.5C11.2 -94.4 22.4 -77.3 40.5 -70.1C58.6 -63 83.6 -65.8 96.6 -55.8C109.6 -45.7 110.6 -22.9 111.5 0L0 0Z" fill="#7513cc"></path><path d="M0 -74.4C7.5 -63 14.9 -51.5 27 -46.8C39.1 -42 55.7 -43.9 64.4 -37.2C73.1 -30.5 73.7 -15.2 74.4 0L0 0Z" fill="#8d0aee"></path><path d="M0 -37.2C3.7 -31.5 7.5 -25.8 13.5 -23.4C19.5 -21 27.9 -21.9 32.2 -18.6C36.5 -15.2 36.9 -7.6 37.2 0L0 0Z" fill="#9900ff"></path></g></svg>