<svg id="visual" viewBox="0 0 900 600" width="900" height="600" xmlns="http://www.w3.org/2000/svg" xmlns:xlink="http://www.w3.org/1999/xlink" version="1.1"><rect x="0" y="0" width="900" height="600" fill="#ffffff"></rect><path d="M0 297L69 297L69 331L138 331L138 390L208 390L208 312L277 312L277 346L346 346L346 316L415 316L415 372L485 372L485 375L554 375L554 343L623 343L623 366L692 366L692 373L762 373L762 350L831 350L831 399L900 399L900 294L900 601L900 601L831 601L831 601L762 601L762 601L692 601L692 601L623 601L623 601L554 601L554 601L485 601L485 601L415 601L415 601L346 601L346 601L277 601L277 601L208 601L208 601L138 601L138 601L69 601L69 601L0 601Z" fill="#d4dfcc"></path><path d="M0 476L69 476L69 456L138 456L138 414L208 414L208 419L277 419L277 389L346 389L346 472L415 472L415 413L485 413L485 452L554 452L554 452L623 452L623 389L692 389L692 427L762 427L762 416L831 416L831 473L900 473L900 449L900 601L900 601L831 601L831 601L762 601L762 601L692 601L692 601L623 601L623 601L554 601L554 601L485 601L485 601L415 601L415 601L346 601L346 601L277 601L277 601L208 601L208 601L138 601L138 601L69 601L69 601L0 601Z" fill="#a9c495"></path><path d="M0 483L69 483L69 517L138 517L138 504L208 504L208 538L277 538L277 537L346 537L346 465L415 465L415 501L485 501L485 514L554 514L554 492L623 492L623 517L692 517L692 534L762 534L762 475L831 475L831 490L900 490L900 479L900 601L900 601L831 601L831 601L762 601L762 601L692 601L692 601L623 601L623 601L554 601L554 601L485 601L485 601L415 601L415 601L346 601L346 601L277 601L277 601L208 601L208 601L138 601L138 601L69 601L69 601L0 601Z" fill="#7da960"></path></svg>